<?xml version="1.0" encoding="utf-8"?>
<!-- Generator: Adobe Illustrator 27.2.0, SVG Export Plug-In . SVG Version: 6.00 Build 0)  -->
<svg version="1.1" id="Layer_1" xmlns="http://www.w3.org/2000/svg" xmlns:xlink="http://www.w3.org/1999/xlink" x="0px" y="0px"
	 viewBox="0 0 2000 925" style="enable-background:new 0 0 2000 925;" xml:space="preserve">
<style type="text/css">
	.st0{fill:#4EB8BB;}
	.st1{fill:#559ABA;}
	.st2{fill:#338CAF;}
	.st3{display:none;}
	.st4{display:none;fill:#FFFFFF;}
	.st5{fill:#00AB97;}
	.st6{fill:#87C8C2;}
	.st7{fill:#F6C246;}
	.st8{fill:#FFFFFF;}
	.st9{fill:#65BCB4;}
	.st10{font-family:'MyriadPro-Regular';}
	.st11{font-size:109.7819px;}
	.st12{fill:#E6843E;}
	.st13{fill:#006A90;}
</style>
<rect x="-2.2" y="-1.3" class="st0" width="2003.9" height="926.7"/>
<path class="st1" d="M1257.2,928.5c-26.7-4.3,80.4-148.9,127.2-222.4c13.5-21.1,27.1-42.5,44.9-60.1c18.5-18.4,41-32.1,62.4-47
	c71.9-50.2,133.1-115.5,178.4-190.5c11.5-19.1,22.4-39.2,39.2-53.8c19.5-17,45-25,69-34.6c38.4-15.3,75.2-35.9,105.1-64.6
	c38.5-36.9,66.4-87.6,115-109.4v779.4C1998.3,925.4,1272.3,930.9,1257.2,928.5z"/>
<path class="st2" d="M1997.9,229.6c0,68.1-110.7,79.7-169.8,113.6c-17.7,10.1-35.8,19.8-51.7,32.5c-18.7,15-33.9,33.7-50.3,51.2
	c-55,58.7-123.4,102.9-183.2,156.7c-32.6,29.3-62.5,61.3-92.4,93.2c-26.4,28.2-53.1,56.9-70.1,91.5c-24,48.7-26.8,104.7-29.2,159
	h650.6C2001.7,927.2,1997.9,226.3,1997.9,229.6z"/>
<g id="qdA1Mf.tif" class="st3">
	
		<image style="display:inline;overflow:visible;" width="2870" height="1326" id="Layer_0" xlink:href="9C822D07D58D628D.png"  transform="matrix(0.6955 0 0 0.6955 2.7417 5.2172)">
	</image>
</g>
<rect x="756.1" y="352.9" class="st4" width="522.6" height="422.9"/>
<path class="st5" d="M-0.3,215c14.3-0.4,28.5-0.8,42.8-1.2c3.1-0.1,6.5-0.3,8.9-2.3c2.2-1.9,3.1-4.9,3.7-7.7
	c2.8-12.9,3-26.5,7.8-38.9c10.7-27.6,46.1-42.6,73.4-31c6.9,3,13.3,7.3,20.4,9.8c7.1,2.4,15.8,2.6,21.5-2.3
	c9.2-7.9,5.7-22.7,1.6-34.1c-5.2-14.3-10.2-28.8-12.6-43.8c-1.2-7.2-1.7-14.9,1.3-21.7C178,19.8,214.1,24,227.9,4.2h307.3
	c8.7,10.4,4.7,27.5,0,40.2s-12.4,24.3-15.5,37.5c-4.6,19.9,1.9,40.3,5.9,60.3c5.6,28.6,6,58.9-3.4,86.5c-9.3,27.7-29,52.5-55.8,64.2
	c-28.9,12.6-64.6,9.8-89.2,29.6c-7.5,6-13.4,13.8-18.8,21.7c-11.5,16.9-21,35.2-28.3,54.3c-8.9,23.4-14.5,48.2-24.9,71
	c-10.3,22.9-26.5,44.5-49.6,54.2c-13.6,5.7-28.8,6.9-42.2,13c-13.8,6.3-47.5,19.6-57.5,20.9c-10,1.3-19.4,5.5-29.4,6.7
	c-21.8,2.5-42.9-10.6-56.3-27.9c-13.4-17.3-20.7-38.5-28.2-59.1c-13.8-37.9-29.2-75.2-46.1-111.7L-0.3,215z"/>
<path class="st6" d="M44.1,258.3c-3.7-6.8-9.9-14.7-17.3-12.4c-3.6,1.1-6,4.5-7.8,7.8c-11,20.1-9.5,45.1-2.1,66.8
	s20.1,41.1,31.1,61.2c29.2,53.2,48.3,113.7,91.3,156.6c6.4,6.4,13.7,12.5,22.5,14.2c2,0.4,4.2,0.5,5.8-0.7c1.4-1.1,2-2.9,2.5-4.6
	c4.4-16.7,3.3-34.8-3.2-50.9c-7-17.3-19.8-31.9-25.3-49.7c-7.2-23.7,0.7-51.2,19.4-67.4c5.1-4.4,11.9-8.2,18.4-6.3
	c5.8,1.7,9.3,7.4,12.5,12.6c16.7,27.6,35.9,53.7,57.4,77.8c4.6,5.2,9.6,10.4,16,12.8c6.5,2.4,14.9,1.1,18.6-4.7
	c1.8-2.8,2.2-6.3,2.4-9.7c1.3-25.6-10.4-50-22.1-72.8c-36.2-70.4-75.7-139.6-126.6-200.3c-10-12-25.7-24.7-39.5-17.5
	c-5.3,2.8-8.9,8.1-10.7,13.7c-6.5,19.6,6,39.9,17.2,57.3c11.2,17.4,22,39.3,12.6,57.7c-6.6,12.9-28.1,22.2-41.4,13.5
	C61.6,304.2,52.1,273.1,44.1,258.3z"/>
<path class="st6" d="M248.7,162.9c-7.6,0-15.6,0.5-21.7,4.9c-9.1,6.5-11,19.1-12.1,30.2c-3.1,31.2-5.7,64.9,10.2,92
	c19.5,33.4,63.1,46.9,101.4,41.1c17.9-2.7,36.7-10.2,45.4-26c4.6-8.3,5.8-17.9,6-27.4c0.3-12.4-1.5-25.7-9.5-35.2
	c-8-9.5-24-13-33-4.4c-12.9,12.2-4.1,38.3-18.9,48.1c-4,2.6-8.8,3.4-13.5,3.9c-8.5,1-17.3,1.5-25.5-0.9s-15.9-8.4-18.2-16.6
	c-3.4-12.2,5.3-24.5,15.1-32.5c9.8-8,21.5-14.5,27.6-25.6C322.5,177.1,275,163,248.7,162.9z"/>
<path class="st6" d="M204.1,63.5c4.9,8.7,11.9,15.9,18.9,23.1c49,50,99.2,98.8,150.6,146.3c16.2,15,33.3,30.3,54.3,37.3
	c21,7,47.2,3.3,60.4-14.4c13.4-18,8.7-45.5-7.2-61.3c-2.7-2.7-5.8-5.2-9.5-6c-10.5-2.3-18.2,9-27,15.1c-12.3,8.5-29.3,7-42.6,0.2
	c-13.3-6.8-23.6-18.1-33.7-29.1c-30.5-33.5-61-67.1-91.6-100.6c-14.1-15.5-31.5-37.6-51.4-45.8C201.7,18.4,193.3,44.4,204.1,63.5z"
	/>
<path class="st6" d="M291.7,52.1c1.3,8.6,6.9,15.8,12.4,22.6c24,29.6,49.6,58.2,79,82.7c6.1,5.1,12.5,10.1,19.8,13.3
	c22.7,10,52.4-1.4,62.7-24c4.6-10.1,3.8-24.9-6.5-29.1c-10.9-4.5-21.7,6.3-33,9.2c-18.2,4.8-34.9-10.7-47.4-24.8
	c-12.6-14.2-25.1-28.3-37.7-42.5C331.5,49,285,8.9,291.7,52.1z"/>
<path class="st6" d="M380.5,74.5c6.6,14.6,22.2,23,37.5,28c6.5,2.1,13.3,3.8,20,2.5c8.4-1.6,15.1-7.6,21.3-13.6
	c6.5-6.3,12.8-12.9,16.9-20.9s5.6-17.8,2.2-26.1c-9.1-21.8-43.1-37.3-65.1-35.9C381.6,10.5,367.5,45.9,380.5,74.5z"/>
<path class="st0" d="M258.5,194.9c-6.2-1-13.6-1.6-17.7,3.1c-2.9,3.3-3,8.5-0.8,12.3c2.2,3.8,6.2,6.3,10.5,7.2
	c6.6,1.4,14.3-1.4,17-7.5c2.7-6.1-2-14.8-8.7-14.4"/>
<path class="st0" d="M424.3,40.3c-4.8-1.8-10.5,1.3-12.5,6c-2,4.7-0.7,10.3,2.3,14.5c3.4,4.7,9,7.7,14.8,8c2.8,0.1,5.7-0.4,7.9-2.1
	c1.3-1,2.3-2.4,3-3.9c2.2-4.6,1.9-10.4-0.7-14.8s-7.5-7.4-12.6-7.7"/>
<path class="st6" d="M750.5,35.9c-0.4-4.4-0.6-9.3,2-12.8c3.8-5.2,12.3-5,17.3-0.9c5,4.1,7,10.9,7.5,17.3c0.3,3.9,1,8.9,4.9,9.6
	c4.1,0.8,6.6-4.3,8.4-8.1c6.8-14.1,25.2-20.1,40.2-15.7s26.4,17.3,32.4,31.8c5.9,14.5,7.1,30.4,7.1,46.1c0,12.2-0.7,24.7-5,36.1
	c-1.3,3.4-3.1,6.9-6.2,8.6c-4.3,2.4-9.8,0.7-13.7-2.4c-17.4-13.9-6.2-44.9-20.8-61.7c-3-3.4-6.9-6-11-8c-4.4-2.2-10.1-3.6-14-0.6
	c-1.6,1.2-2.6,3-3.4,4.8c-7,15.9,1.1,33.9,5.7,50.6c2.9,10.4,0.6,28.3-14.7,26.6c-10.7-1.2-12.6-14.2-15.4-22.7
	C761,102.4,753.5,69.6,750.5,35.9z"/>
<path class="st6" d="M988.2,38.1c-3.2,5.8-4.1,12.6-4.8,19.2c-2.9,29.3-2.7,59.3,5.1,87.6c1.4,5.1,3.1,10.2,6.8,14
	c3.6,3.8,9.7,5.7,14.3,3.2c4.3-2.3,6-7.5,6.9-12.3c2.2-11.2,2.1-23-0.4-34.1c-2.7-12.2-7.9-25.8-1.2-36.4c2.6-4.1,6.8-7,11-9.5
	c8-4.6,16.9-7.9,26-9.7c8.8-1.7,19.5-3.2,23.1-11.4c2.7-6.4-0.8-14.1-6.6-18c-5.7-3.9-13-4.5-19.9-4.1c-11.6,0.8-23.2,8.5-34,7.1
	c-5.7-0.7-7-6.9-14.7-5.4C994.9,29.4,990.6,33.9,988.2,38.1z"/>
<path class="st6" d="M1457,56.5c0.6-7.6,1.8-16.3,8.2-20.5c6.9-4.5,16.6-1.1,21.8,5.2c5.2,6.3,7,14.7,8.7,22.7
	c11.3-21.2,26.9-45.3,50.9-46.1c18.6-0.7,34.5,13.5,45,28.8c10.3,15,17.8,34.1,11.6,51.2c-1.6,4.2-4.5,8.6-8.9,9.2
	c-3,0.4-5.9-0.9-8.4-2.6c-7.8-5.5-11.9-14.7-17.3-22.6c-5.4-7.9-13.9-15.3-23.3-13.8c-6.8,1.1-11.9,6.5-16.3,11.8
	c-5.5,6.8-10.6,14-13.7,22.1c-11.6,29.9,4.5,65.8-8.8,95.1c-16.1,35.3-49.9,13.7-52.4-15C1450.7,141,1454,97.7,1457,56.5z"/>
<g>
	<path class="st6" d="M613.4,63.8c-9.6,4.1-17.3,11.6-23.7,19.8c-14.1,18.2-22.2,41.3-20.8,64.2c1.5,22.9,13.1,45.4,32.1,58.4
		c19,13,45.2,15.3,65.4,4.4c7.3-4,13.9-9.7,17.7-17.1c5.6-10.7,4.6-24.3-1.2-34.8c-5.9-10.6-16.2-18.3-27.6-22.3
		c-7.6-2.7-16.2-3.7-23.8-1c-9.1,3.3-17.5,11.8-26.7,8.9c-5.6-1.8-9.2-7.7-9.7-13.5c-0.5-5.9,1.5-11.7,4.2-16.9
		c5.6-11,14.8-21.1,26.9-23.8c7-1.5,14.2-0.5,21.3-0.5c12.8,0,33.5-12.5,18.4-25.1C655,55.4,625,58.8,613.4,63.8z"/>
	<path class="st0" d="M644.6,164.3c-7.1-0.5-15.7,1.5-18.1,8.2c-1.4,4,0.1,8.8,3.4,11.5c3.3,2.7,8,3.3,12,1.9
		c4.2-1.5,7.5-5.3,8.4-9.7c0.9-4.4-0.5-9.2-3.7-12.3"/>
</g>
<g>
	<path class="st6" d="M733.8,117.7c8.4-5.9,13.2-17.6,8.9-26.9c-2.1-4.7-6.2-8.1-10.2-11.3c-5.4-4.2-11.3-8.2-18.1-8.9
		c-7.9-0.8-15.9,3.2-21.2,9.1c-5.3,6-8.2,13.7-10,21.5c-4.3,19.9-0.6,42.1,12.7,57.4c13.3,15.4,36.9,22,55.2,13
		c3-1.5,5.8-3.4,7.6-6.2c2.3-3.7,2.2-8.4,2-12.8c-0.2-3.5-0.7-7.5-3.4-9.7c-4.7-3.9-11.5,0-17.1,2.3c-8.1,3.3-31,2.3-34.2-8.9
		C702.2,123.2,726.1,123.1,733.8,117.7z"/>
	<path class="st0" d="M712.4,91.1c-3.1-0.2-5.6,2.5-7.2,5.1c-1.4,2.2-2.6,4.7-2.7,7.4c-0.1,2.7,1.3,5.5,3.7,6.5
		c3.4,1.4,7.2-1.1,9.1-4.2c2.8-4.5,2.8-11.3-1.6-14.3"/>
</g>
<g>
	<path class="st6" d="M962,44.8c4.9,6,5.8,14.2,6.2,22c0.2,3.4,0.3,6.9-1.2,10c-3.1,6.4-11.4,7.6-18.4,8.9c-9,1.7-17.7,4.9-25.7,9.3
		c-2.3,1.3-4.7,2.9-5.3,5.5c-0.9,4,3.1,7.3,6.9,8.9c8.8,3.7,19.2,3.6,27.9-0.2c6.5-2.8,12.3-7.6,19.4-8.2c6.2,5.7,5.6,16.3,0.9,23.3
		s-12.5,11.3-20.1,15c-8.1,4-16.4,7.6-25.2,9.1c-36.9,6-53.2-42.4-44.5-72.1C890.7,49.6,939.2,17.2,962,44.8z"/>
	<path class="st0" d="M938.5,57.9c-3.1,0.2-5.2,4.1-3.6,6.8c1.5,2.7,6,2.8,7.7,0.2c1.7-2.6-0.2-6.6-3.2-7"/>
</g>
<g>
	<path class="st6" d="M1039.1,77c-8.3,7.8-11.6,19.5-12.8,30.8c-1,9.7,0.2,21.1,8.3,26.5c4,2.7,9.1,3.2,13.9,3.2
		c11.6-0.2,23.1-4,32.5-10.8c-0.5,6.3-0.9,12.5-1.4,18.8c-0.1,1.2-0.2,2.5,0.2,3.7c0.6,1.7,2.3,2.9,4,3.6c5.7,2.3,12.5,0.3,17.2-3.7
		c4.7-4,7.7-9.5,10.4-15.1c8.7-18.3,27.7-54.1-1-62.4C1090.3,65.6,1055.5,61.5,1039.1,77z"/>
	<path class="st0" d="M1061.5,97c-4-1.3-8.7-0.1-11.8,2.9c-3.1,2.9-4.5,7.4-4.1,11.6c0.2,2,0.8,4,2.3,5.3c2.2,1.9,5.7,1.6,8.1,0.1
		c2.5-1.5,4.1-4.1,5.6-6.5c1.3-2.2,2.6-4.4,3-6.9c0.4-2.5-0.1-5.3-2-6.9"/>
</g>
<path class="st6" d="M1131.5,61.1c-5.1-4-12-4.4-18.1-6.4c-6.1-2-12.5-7.2-11.4-13.6c0.8-4.2,4.6-7.2,8.4-9.3
	c18-10,39.7-10.4,60.3-10.2c13.7,0.2,27.3,0.5,41,1c10.7,0.4,22.7,1.4,29.8,9.5c6.2,7.1,6.6,18.1,2,26.4s-13.2,13.6-22.4,15.6
	c-9.9,2.2-20.4,0.7-30.1,3.6c-22.8,6.7-32.5,32.7-41.7,54.6c-8,19.1-26.7,68.6-49.2,73.9c-19.5,4.6-13.9-7.8-7.6-18.9
	c10.4-18.3,25.8-33.2,34.4-52.8C1133.9,118.8,1149,74.9,1131.5,61.1z"/>
<g>
	<path class="st6" d="M1208.9,138.4c8.4-1.8,15.9-9.1,15.8-17.6c-0.1-4.3-2-8.3-4-12c-2.7-5-5.9-10-10.8-12.8
		c-5.8-3.3-13.2-2.9-19.2-0.1c-6,2.8-10.9,7.7-14.8,13.1c-9.9,13.7-14.5,31.9-9.4,48.1s20.9,29.1,37.8,28.3c2.8-0.1,5.6-0.6,7.9-2.2
		c3-2.1,4.5-5.7,5.8-9.1c1-2.8,2-5.9,0.6-8.6c-2.3-4.5-8.8-3.8-13.8-3.9c-7.3-0.2-24.4-8.6-23.2-18.2
		C1183,132.1,1201.3,140,1208.9,138.4z"/>
	<path class="st0" d="M1201.4,110.9c-2.3-1.2-5.1,0-7.2,1.5c-1.8,1.2-3.6,2.8-4.5,4.8c-0.9,2-0.8,4.6,0.7,6.2
		c2.1,2.2,5.8,1.5,8.3-0.2c3.7-2.5,5.9-7.7,3.6-11.4"/>
</g>
<path class="st6" d="M1295.8,74.6c-0.2-5.6-0.2-11.4,1.6-16.7c3-9,10.6-15.6,18.4-21c14.1-9.7,29.9-16.9,46.5-21.3
	c12-3.2,26-4.4,35.8,3.2c10.4,8.1,12.3,22.9,12.2,36.1c0,5.8-0.3,11.7-3,16.8c-2.8,5.3-7.8,9.1-12.7,12.7
	c-10.6,7.8-21.2,15.5-31.8,23.3c15.2-13.1,39.5-11.7,55.8,0c16.3,11.7,25.4,31.4,28.3,51.3c1,6.8,1.4,13.9-0.9,20.4
	c-3.1,8.9-10.8,15.5-18.7,20.7c-28.2,18.8-84.4,39.5-102.4,0.9C1308.1,164.2,1297.2,115,1295.8,74.6z"/>
<g>
	<path class="st6" d="M1534.3,122.9c-8.3,7.8-11.6,19.5-12.8,30.8c-1,9.7,0.2,21.1,8.3,26.5c4,2.7,9.1,3.2,13.9,3.2
		c11.6-0.2,23.1-4,32.5-10.8c-0.5,6.3-0.9,12.5-1.4,18.8c-0.1,1.2-0.2,2.5,0.2,3.7c0.6,1.7,2.3,2.9,4,3.6c5.7,2.3,12.5,0.3,17.2-3.7
		c4.7-4,7.7-9.5,10.4-15.1c8.7-18.3,27.7-54.1-1-62.4C1585.5,111.6,1550.7,107.4,1534.3,122.9z"/>
	<path class="st0" d="M1556.7,142.9c-4-1.3-8.7-0.1-11.8,2.9c-3.1,2.9-4.5,7.4-4.1,11.6c0.2,2,0.8,4,2.3,5.3
		c2.2,1.9,5.7,1.6,8.1,0.1s4.1-4.1,5.6-6.5c1.3-2.2,2.6-4.4,3-6.9s-0.1-5.3-2-6.9"/>
</g>
<path class="st6" d="M1632.6,100.4c-0.4,17.8-0.8,35.6-1.2,53.4c-0.3,12.9-0.6,25.8,0.4,38.7c0.4,4.9,1,10.1,3.6,14.3
	s7.6,7.4,12.4,6.2c5.4-1.3,8.3-7,10.1-12.2c5-14,7.3-29,6.7-43.9c-0.4-10-1.9-20.3,1.5-29.6c3.4-9.4,14.2-17,23.2-12.8
	c5.6,2.6,8.6,8.7,10.9,14.5c5.1,13,8.8,26.6,10.9,40.3c1.1,7.3,1.9,14.9,5.6,21.3c3.7,6.4,11.3,11.2,18.4,9
	c7.4-2.3,10.8-10.8,12.4-18.4c3.9-18.3,3.6-37.5-1-55.6c-3.6-14.4-10.5-28.9-23.2-36.7c-13.9-8.5-31.4-7.3-47.6-6.1
	c-11.6,0.9-21.7-12.6-32.7-9.7C1631.8,76.1,1632.9,90.7,1632.6,100.4z"/>
<path class="st7" d="M-2.9,632.3c46.8-16.1,98.6-17.5,146.2-3.9c42.5,12.1,81.2,35.7,124,46.8c42.8,11.1,94.7,6.3,121.9-28.6
	c1.8,27.8,21.7,51.9,45.7,66.1c24,14.2,51.8,20.2,79,26.1c31.4,6.7,62.7,13.4,94.1,20.1c-5.5,16.2-11,32.4-16.5,48.7
	c-3.5,10.3-7,21.1-5.7,31.9s9.1,21.6,20,22.7c9.8,0.9,18.5-6,25-13.2c19.5-21.5,31.2-50,32.4-79c32,4,64.8,8.2,93.4,23
	s52.8,42.6,54,74.8c0.2,6.8-0.4,14.2,3.2,19.9c4.4,7,13.5,9.2,21.6,10.8c39.8,7.7,82,20.1,121.8,27.9l-961.3,0.6L-2.9,632.3z"/>
<path class="st8" d="M127,770.4c-23.4,31.3-34.2,70.7-57.8,101.8c37.2-3.1,71.7-20.4,104.2-38.9c26.1-14.9,52-31.2,71.2-54.2
	c17.6-21,28.7-46.6,39.5-71.7C224,707.2,165.3,719.2,127,770.4z"/>
<path class="st9" d="M153.6,747.1c-8.5,10.5-11.2,25.1-8.8,38.4c1.7,9.6,6.2,18.9,13.8,25c6.9,5.5,15.8,8,24.6,8.1
	c21.7,0.3,42.8-14.3,50.2-34.6c1.3-3.6,2.2-7.3,1.9-11.1c-0.5-5.4-3.4-10.2-6.9-14.3C210.6,736.9,174.7,720.9,153.6,747.1z"/>
<path class="st7" d="M441.7,643.3c-58.7-68.9-124.4-199.7-68.2-270.6c32.8-41.4,80.8-67.9,129-89.5c29.3-13.1,59.3-24.9,90.5-32.6
	c39.7-9.7,80.7-12.7,121.4-15.5c182.9-12.9,366.7-25.9,549.3-9.7c63.8,5.7,127.3,14.9,190.7,24.1c45.7,6.6,93.3,14,131.3,40.2
	c46.2,32,71.5,89.5,70.6,145.7s-25.7,110.4-62.6,152.8c-59.6,68.6-147.6,107-236.6,125.5c-89,18.4-180.6,18.9-271.3,24.2
	c-70.9,4.1-142.2,11.3-212.7,2.5c-63-7.8-124.2-28.1-187.5-32.3c-49.9-3.3-36.2,54-52.5,45.6C617.2,745.4,461.9,667,441.7,643.3z"/>
<text transform="matrix(1 0 0 1 829.7293 553.3284)" class="st8 st10 st11">camino</text>
<g id="fYDfiQ.tif">
	
		<image style="overflow:visible;" width="194" height="94" id="Layer_0_00000023248721610076626040000005387111769741893764_" xlink:href="9C822D07D58D628F.png"  transform="matrix(0.5 0 0 0.5 976.6069 401.8243)">
	</image>
</g>
<path class="st12" d="M516.9,586.7c-36-40.6-63.4-95.9-48.7-148.1c7.6-26.8,25.6-49.6,45.7-68.8c42.5-40.6,96.7-68.7,154.3-80.2
	c35.5-7.1,71.9-7.9,108.1-8.6c149.9-3.2,299.8-6.5,449.7-4.3c36,0.5,72.3,1.4,107.2,10.1c42,10.4,80.5,31.6,121.7,44.6
	c10.7,3.4,21.7,6.3,31.2,12.3c10.2,6.5,17.9,16.2,24.5,26.2c25.3,38.5,37.8,85.8,32.4,131.5c-5.4,45.8-29.2,89.5-66.1,117.2
	c-27.8,20.8-61.6,32-95.4,39.6c-85.2,19.2-173.5,17.8-260.8,16.3c-85.7-1.5-171.4-3-257.1-2.2c-70.1,0.6-139.9,3.7-207.9,21.8
	c-35.7,9.5-41.6-12.5-66.7-37C565.1,633.6,539.3,611.9,516.9,586.7z"/>
<path class="st12" d="M378.5,905.1c5.7,2.4,11.9,3.3,18.1,3.2c50.4-0.3,73.7-75.2,16.9-81.4C372.9,822.4,329.1,884.1,378.5,905.1z"
	/>
<path class="st6" d="M1715.7,224.3c-11.9,8.6-22.2,20.5-25.2,34.9c-4.2,21,9.3,43.2,28.7,52.2s43,6.2,61.8-4
	c18.8-10.2,33.3-27.1,44.2-45.5c32.9-55.2,36.1-122.6,35.5-186.9c0-2.9-0.1-6-1.5-8.5c-1.8-3.4-5.6-5.3-9.4-6.3
	c-19.8-5.3-40.4,9.1-49.6,27.4c-9.2,18.2-10,39.4-11.5,59.8c-1.2,15.9-2.1,46.4-16.7,56.6C1757.1,214.5,1732.6,212,1715.7,224.3z"/>
<path class="st0" d="M1752.1,254.7c-8.7-1.8-18.1,5.6-18.3,14.5c0,2.1,0.4,4.3,1.7,6c1.1,1.4,2.6,2.3,4.3,2.8
	c7.4,2.4,15.7-2.7,19.1-9.6c1.1-2.3,1.9-5,1.2-7.5c-0.7-2.5-3.2-4.6-5.7-4.1"/>
<path class="st0" d="M1355.4,50c-2.2,0.9-4.1,2.5-5,4.7s-0.8,4.8,0.6,6.7c0.9,1.2,2.3,2,3.7,2.7c3,1.4,6.6,2.1,9.8,1.1
	c3.2-1,5.9-3.9,5.9-7.3c0-3.4-2.7-6.3-5.9-7.6c-3.1-1.3-6.6-1.3-10-1.3"/>
<path class="st0" d="M1368.8,168.4c-0.1,3.4,2.7,6.6,6,7.3c6.4,1.4,14.8-6.8,10.4-13C1380.8,156.6,1369,161.5,1368.8,168.4z"/>
<path class="st13" d="M1999.1,443c-21.2,3.3-25.1-12.7-45.2-5.2c-12.3,4.6-20.3,16.9-32.3,22.2c-20.3,9-43-4.6-60.8-18
	c-17.8-13.4-39.5-27.9-60.5-20.5c-26,9.2-32,45.7-56.2,59c-10.3,5.6-22.4,6.2-33.7,9.2c-33.8,8.9-57.6,38.1-85.4,59.2
	c-22.2,16.8-47.6,28.9-71.6,43c-25.2,14.8-49,32-72.6,49.2c-21.2,15.4-42.6,30.9-60.7,49.9c-24.3,25.6-41.8,56.9-57,88.8
	c-23.4,48.9-42,100.2-55.5,152.7c5.2,1,10.5,1.9,15.7,2.9l678.4-9.9L1999.1,443z"/>
<path class="st2" d="M1413.9,788c2.7-20.4,7.5-42.8,24.3-54.7c6.7-4.7,17.3-6.6,22.3-0.1c2,2.6,2.6,6,3.2,9.2
	c4,22.4,9.6,44.5,16.7,66.1c4.6,14,14.5,30.7,29.1,28.1c25.3-57.2,20.6-123.3,39.9-182.8c3.9-11.9,12.7-25.9,25-23.3
	c9.7,2,14,13.2,16.3,22.7c11.4,46.8,13.9,95.8,7.6,143.6c-4.8,36.1-15.2,72.5-37.3,101.3c-7.5,9.8-17.1,19-29.2,21.2
	c-16.9,3-33.3-8.8-42.6-23.3s-13.3-31.6-20.3-47.3c-1.6-3.6-3.6-7.3-7.2-8.9c-9-3.8-16,8.9-16.2,18.6c-0.3,14.5,3.5,29.2,0.5,43.5
	c-2.4,11.4-12.9,26.2-26.1,22c-13.7-4.3-12.1-23.2-12.2-34.1C1407.2,855.9,1409.5,821.7,1413.9,788z"/>
<path class="st2" d="M1621.7,643.7c1.7-17.2,3.6-34.9,9-49.4c7-18.8,18.7-29.7,30.6-36.3c2.5-1.4,5.2-2.7,7.8-1.6
	c2.9,1.2,5.3,5.1,7.3,9.1c19.1,37.3,24.5,91.1,27.9,141.8c2.2,33,3.9,66.1,5.1,99.3c0.8,22.2,1.3,44.7-1.7,66.2
	c-2.4,17.2-9.6,35.9-19.2,33.8c-9.5-2.1-14.1-22.9-14.4-40.6c-0.2-17.6,1.8-36.3-2.5-52.1c-1.9-6.7-4.8-12.3-7.8-17.4
	c-2-3.4-4.3-6.8-7-7.7c-5-1.7-9.8,6.1-11.4,15c-1.6,8.9-0.8,18.5-0.2,27.8c1.8,25.7,1.9,60.1-10.4,77.8
	c-14.7,21.2-22.3-5.2-23.6-30.3C1607.2,802.7,1614.5,718.7,1621.7,643.7z"/>
<g>
	<g>
		<path class="st6" d="M1576.8,821.7c3.2,0,3.2-5,0-5C1573.6,816.7,1573.5,821.7,1576.8,821.7L1576.8,821.7z"/>
	</g>
</g>
<path class="st2" d="M1718,640.6c0.1-42.2,1-86.8,21.7-123c13.9,2.6,22.2,18.3,24.3,33c2.2,14.7,0.3,29.9,3.6,44.4
	c1.7,7.2,5,14.5,11.2,18.1c8.9,5.1,20.7,0.2,27-8.1c6.3-8.4,8.6-19.3,10.7-29.8c3.6-18.3,7.3-36.7,10.9-55c1.8-9.1,5.5-20.1,14.3-21
	c5.8-0.6,11,3.9,14.7,8.7c13.7,18.1,16.2,42.6,17.6,65.6c4.3,71.9,3.3,144.1-3,215.8c-2.9,32.9-7.1,66.2-20.2,96.2
	c-4.2,9.6-12.3,20.2-22,17.5c-23.9-54.1-10.2-117.3-14.9-176.7c-0.6-7.2-1.6-14.8-5.6-20.7c-4-5.9-12.1-9.4-18.1-5.9
	c-3,16.1-8.5,31.6-16.1,45.9c-8.3-0.3-10.9-11.6-11.7-20.3c-0.8-8.6-5.7-19.9-13.7-17.7c-7.9,48.4-6.3,98.5,4.7,146.2
	c3.2,14,7.2,29.1,1.9,42.3c-8.2,20.5-28.9,16.9-35,0c-7.8-21.9-1.1-60.8-1.3-84.5C1718.2,754.7,1717.9,697.6,1718,640.6z"/>
<path class="st2" d="M1897.6,569.5c-10.6,93.9-13.7,190.2,2.1,282.9c1.8,10.7,4,21.5,8.8,30.6c8.1,15.2,23.3,23.2,37.9,22.3
	s28.4-10.1,38.7-23c4-5,7.8-12.3,5.5-18.8c-1-3-3.2-5.1-5.4-6.7c-16.3-12.2-39.9-5.4-53.2-22.4c-10.1-12.9-9.1-34.9-1.3-50.2
	c7.7-15.3,20.5-25.2,33.1-33.9c5.7-3.9,12.2-8.8,13.4-16.8c1.7-11-7.9-20-16.7-21.6s-18.1,0.9-26.8-1.9c-19.8-6.5-27.4-39.6-19.2-63
	c8.2-23.4,27.1-38,45.9-47.9c31.1-16.3,16.3-68.9-9.2-85C1919.7,494.3,1901.2,537.2,1897.6,569.5z"/>
<path class="st13" d="M1648.1,745.4c2.7,3.5,7.3,6.3,11.4,4.7c3.8-1.5,5.4-6,6.4-10c2.2-9.5,10.4-56-13.6-47
	C1637.5,698.6,1640.3,735.3,1648.1,745.4z"/>
</svg>
